HIERARCHY
ROOT Hips
{
	OFFSET 0.000000 0.000000 0.000000
	CHANNELS 6 Xposition Yposition Zposition Xrotation Yrotation Zrotation
	JOINT LeftUpLeg_virtual
	{
		OFFSET 0.000000 0.000000 0.000000
		CHANNELS 3 Xrotation Yrotation Zrotation
		JOINT LeftUpLeg
		{
			OFFSET 10.205400 -3.823500 0.155100
			CHANNELS 3 Xrotation Yrotation Zrotation
			JOINT LeftLeg
			{
				OFFSET 0.708757 -12.982077 0.567790
				CHANNELS 3 Xrotation Yrotation Zrotation
				JOINT LeftFoot
				{
					OFFSET -0.708756 -10.717838 -2.184338
					CHANNELS 3 Xrotation Yrotation Zrotation
					JOINT LeftToeBase
					{
						OFFSET 0.108149 -7.191104 7.560241
						CHANNELS 3 Xrotation Yrotation Zrotation
						JOINT LeftToe_End
						{
							OFFSET 0.070230 0.081724 4.490308
							CHANNELS 3 Xrotation Yrotation Zrotation
							End Site
							{
								OFFSET 0 0 0
							}
						}
					}
				}
			}
		}
	}
	JOINT RightUpLeg_virtual
	{
		OFFSET 0.000000 0.000000 0.000000
		CHANNELS 3 Xrotation Yrotation Zrotation
		JOINT RightUpLeg
		{
			OFFSET -10.205400 -3.823500 0.005500
			CHANNELS 3 Xrotation Yrotation Zrotation
			JOINT RightLeg
			{
				OFFSET -0.708756 -12.982134 0.610632
				CHANNELS 3 Xrotation Yrotation Zrotation
				JOINT RightFoot
				{
					OFFSET 0.708754 -10.717769 -1.945823
					CHANNELS 3 Xrotation Yrotation Zrotation
					JOINT RightToeBase
					{
						OFFSET -0.108140 -7.191069 7.372968
						CHANNELS 3 Xrotation Yrotation Zrotation
						JOINT RightToe_End
						{
							OFFSET -0.070227 0.081735 4.479403
							CHANNELS 3 Xrotation Yrotation Zrotation
							End Site
							{
								OFFSET 0 0 0
							}
						}
					}
				}
			}
		}
	}
	JOINT Spine_virtual
	{
		OFFSET 0.000000 0.000000 0.000000
		CHANNELS 3 Xrotation Yrotation Zrotation
		JOINT Spine
		{
			OFFSET 0.000000 6.876099 0.125700
			CHANNELS 3 Xrotation Yrotation Zrotation
			JOINT Spine1
			{
				OFFSET 0.000000 5.730043 0.104720
				CHANNELS 3 Xrotation Yrotation Zrotation
				JOINT Spine1_split
				{
					OFFSET 0.000000 5.730043 0.104720
					CHANNELS 3 Xrotation Yrotation Zrotation
					JOINT Spine2
					{
						OFFSET 0.000000 5.730043 0.104720
						CHANNELS 3 Xrotation Yrotation Zrotation
						JOINT Neck_virtual
						{
							OFFSET 0.000000 0.000000 0.000000
							CHANNELS 3 Xrotation Yrotation Zrotation
							JOINT Neck
							{
								OFFSET 0.000000 10.314075 0.188496
								CHANNELS 3 Xrotation Yrotation Zrotation
								JOINT Head
								{
									OFFSET 0.000000 7.643700 -2.377400
									CHANNELS 3 Xrotation Yrotation Zrotation
									JOINT HeadTop_End
									{
										OFFSET 0.000000 43.788605 -13.619600
										CHANNELS 3 Xrotation Yrotation Zrotation
										End Site
										{
											OFFSET 0 0 0
										}
									}
								}
							}
						}
						JOINT LeftShoulder_virtual
						{
							OFFSET 0.000000 0.000000 0.000000
							CHANNELS 3 Xrotation Yrotation Zrotation
							JOINT LeftShoulder
							{
								OFFSET 2.196100 4.412489 0.087492
								CHANNELS 3 Xrotation Yrotation Zrotation
								JOINT LeftShoulder_split
								{
									OFFSET 2.196100 4.412489 0.087492
									CHANNELS 3 Xrotation Yrotation Zrotation
									JOINT LeftArm
									{
										OFFSET 8.771219 -2.981674 -0.026999
										CHANNELS 3 Xrotation Yrotation Zrotation
										JOINT LeftForeArm
										{
											OFFSET 8.512804 0.000000 -0.000000
											CHANNELS 3 Xrotation Yrotation Zrotation
											JOINT LeftHand
											{
												OFFSET 18.484802 0.000000 -0.000000
												CHANNELS 3 Xrotation Yrotation Zrotation
												End Site
												{
													OFFSET 0 0 0
												}
											}
										}
									}
								}
							}
						}
						JOINT RightShoulder_virtual
						{
							OFFSET 0.000000 0.000000 0.000000
							CHANNELS 3 Xrotation Yrotation Zrotation
							JOINT RightShoulder
							{
								OFFSET -2.196100 4.412496 0.070690
								CHANNELS 3 Xrotation Yrotation Zrotation
								JOINT RightShoulder_split
								{
									OFFSET -2.196100 4.412496 0.070690
									CHANNELS 3 Xrotation Yrotation Zrotation
									JOINT RightArm
									{
										OFFSET -8.771282 -2.981682 -0.094208
										CHANNELS 3 Xrotation Yrotation Zrotation
										JOINT RightForeArm
										{
											OFFSET -8.494598 0.000000 0.000000
											CHANNELS 3 Xrotation Yrotation Zrotation
											JOINT RightHand
											{
												OFFSET -18.483803 0.000000 0.000001
												CHANNELS 3 Xrotation Yrotation Zrotation
												End Site
												{
													OFFSET 0 0 0
												}
											}
										}
									}
								}
							}
						}
					}
				}
			}
		}
	}
}
MOTION
Frames: 5
Frame Time: 0.03333333
-0.096473 30.151154 -0.566168 0.000000 0.000000 0.000000 -8.012893 -45.836078 -3.442859 -35.469541 0.080279 17.060008 39.096669 -10.571641 -0.284712 -4.279427 -0.046411 -14.585403 -1.849374 -1.950036 2.218580 0.000000 0.000000 0.000000 -8.008268 -42.730671 -2.850981 0.550540 -14.272304 -21.766145 36.095006 20.901475 -2.489414 -31.132880 -5.053833 7.310453 -0.335008 -1.033700 3.233879 0.000000 0.000000 0.000000 -8.703325 -44.385704 -3.986902 5.414832 -1.766653 0.667473 14.213462 0.250252 0.080037 0.945588 2.413358 -0.132052 0.000000 0.000000 0.000000 12.968991 0.387011 -0.303987 5.647404 -26.660846 -2.242909 -10.970313 -42.341914 0.425983 0.000000 0.000000 0.000000 13.565707 0.539030 -0.320023 0.172085 -5.804395 -7.160631 -4.789694 -4.082148 -0.591601 -1.613439 9.887089 -60.445788 0.703716 -55.960536 -2.455561 0.000000 0.000000 0.000000 14.473938 0.922468 -0.323021 0.896174 5.954184 8.172679 4.544662 2.393834 2.044457 4.526439 -24.838410 70.230075 -7.372690 56.651399 7.037630 0.000000 0.000000 0.000000 
-0.074976 30.248459 -0.616518 0.000000 0.000000 0.000000 -8.544320 -50.028475 -3.934429 -32.819578 0.558739 18.461282 39.205822 -8.828066 -0.572431 -6.010873 0.829633 -15.821227 -1.914577 -1.985028 2.203711 0.000000 0.000000 0.000000 -8.408682 -47.013182 -3.263397 -2.648616 -13.477813 -22.394657 37.691364 21.618454 -3.431124 -30.572528 -4.764666 7.621752 0.334166 -0.400118 3.005860 0.000000 0.000000 0.000000 -9.196711 -48.597551 -4.493849 5.202669 -2.406639 0.671230 14.811286 -1.027510 0.450291 0.836257 2.404051 -0.258535 0.000000 0.000000 0.000000 13.499064 -0.814583 0.058453 5.790293 -26.594474 -2.606952 -10.714339 -43.593921 1.360837 0.000000 0.000000 0.000000 14.171555 -0.683974 -0.010821 0.027782 -7.385067 -6.983197 -4.809327 -3.823134 -0.895708 -0.194228 10.978260 -60.384951 0.488105 -56.947153 -2.452553 0.000000 0.000000 0.000000 15.106123 -0.271979 0.039579 0.928504 4.589201 8.243936 4.899917 1.941256 2.186143 5.006275 -24.220384 70.034212 -6.763524 57.833165 6.750002 0.000000 0.000000 0.000000 
-0.055543 30.333282 -0.644257 0.000000 0.000000 0.000000 -9.087416 -54.160815 -4.445381 -30.064970 1.349868 19.707269 39.121121 -7.022498 -0.820603 -7.607936 1.640815 -17.078714 -2.019006 -2.047310 2.243910 0.000000 0.000000 0.000000 -8.789558 -51.235394 -3.666662 -5.524394 -12.541671 -22.745718 39.130311 22.054042 -4.393672 -30.120236 -4.637959 8.113292 0.701580 0.070021 2.810651 0.000000 0.000000 0.000000 -9.716486 -52.738223 -5.045716 4.990523 -2.964327 0.664979 15.350992 -2.189409 0.761974 0.761183 2.345483 -0.343304 0.000000 0.000000 0.000000 13.995509 -1.902578 0.357722 5.668564 -26.437970 -3.076661 -10.280133 -44.673177 2.282277 0.000000 0.000000 0.000000 14.728622 -1.796773 0.244620 -0.120238 -8.811152 -6.751699 -4.799406 -3.526459 -1.124677 0.926353 12.079487 -60.170299 0.081609 -58.041213 -2.567234 0.000000 0.000000 0.000000 15.696507 -1.357303 0.348611 0.997975 3.187874 8.508059 5.332880 1.541526 2.286627 5.528250 -23.951197 69.567806 -6.141197 59.090501 6.522692 0.000000 0.000000 0.000000 
-0.035969 30.411308 -0.648300 0.000000 0.000000 0.000000 -9.602521 -58.195363 -4.960865 -27.249205 2.451821 20.725599 38.807728 -5.134436 -1.022903 -9.071346 2.387424 -18.332953 -2.098606 -2.129551 2.314896 0.000000 0.000000 0.000000 -9.091661 -55.346273 -4.034678 -8.049935 -11.487543 -22.862231 40.360257 22.231204 -5.328567 -29.736342 -4.654717 8.718111 0.911372 0.395215 2.682228 0.000000 0.000000 0.000000 -10.229801 -56.776996 -5.630430 4.782650 -3.431856 0.648567 15.791233 -3.202954 0.993583 0.718932 2.274602 -0.432516 0.000000 0.000000 0.000000 14.425360 -2.841414 0.573766 5.334572 -26.222845 -3.583021 -9.737182 -45.647336 3.167811 0.000000 0.000000 0.000000 15.207162 -2.767096 0.429222 -0.269120 -10.065991 -6.483621 -4.729941 -3.204345 -1.265323 1.665437 13.064936 -59.787419 -0.464498 -59.085187 -2.771573 0.000000 0.000000 0.000000 16.199938 -2.301491 0.579422 1.117155 1.834910 8.951001 5.801924 1.203597 2.355228 6.051773 -24.001008 68.848805 -5.587080 60.339298 6.405660 0.000000 0.000000 0.000000 
-0.019931 30.484926 -0.619345 0.000000 0.000000 0.000000 -10.072638 -62.124272 -5.478790 -24.399147 3.818179 21.477883 38.258294 -3.148633 -1.176960 -10.391090 3.071732 -19.561155 -2.146427 -2.226080 2.405136 0.000000 0.000000 0.000000 -9.273286 -59.345758 -4.340214 -10.231307 -10.357524 -22.815914 41.362605 22.176082 -6.173119 -29.335929 -4.775363 9.332842 1.202644 0.623483 2.625758 0.000000 0.000000 0.000000 -10.739914 -60.670426 -6.243546 4.588029 -3.817961 0.614163 16.102169 -4.056495 1.140007 0.740955 2.171369 -0.434340 0.000000 0.000000 0.000000 14.769464 -3.618314 0.703885 4.853212 -25.953233 -4.065802 -9.163434 -46.524305 3.968183 0.000000 0.000000 0.000000 15.586239 -3.580533 0.547998 -0.416618 -11.141386 -6.194836 -4.640846 -2.838808 -1.346390 2.076296 13.818660 -59.258810 -1.083555 -59.910779 -3.018521 0.000000 0.000000 0.000000 16.578380 -3.095784 0.724409 1.280286 0.596235 9.513965 6.268613 0.909019 2.436801 6.450419 -24.269469 67.961209 -5.177747 61.379877 6.429459 0.000000 0.000000 0.000000 
